<?xml version="1.0" encoding="UTF-8" ?>
<!DOCTYPE svg PUBLIC "-//W3C//DTD SVG 1.1//EN" "http://www.w3.org/Graphics/SVG/1.1/DTD/svg11.dtd">
<svg viewBox="0 0 1200 500" version="1.1" xmlns="http://www.w3.org/2000/svg">
<path fill="#a3d061" stroke="#a3d061" stroke-width="0.09375" opacity="1.00" d=" M 157.23 68.17 C 184.65 51.07 218.51 47.85 249.98 51.86 C 277.33 55.02 303.03 66.55 325.72 81.79 L 325.80 82.31 C 326.91 87.65 326.09 93.15 327.34 98.46 C 324.96 98.23 322.56 98.17 320.18 98.24 C 293.75 80.25 262.08 69.52 230.00 69.57 C 207.41 68.92 184.81 75.25 165.30 86.50 C 159.50 90.15 153.66 93.99 149.14 99.21 C 146.02 102.64 142.71 106.24 141.84 110.96 C 178.95 97.44 220.52 95.33 258.32 107.35 C 282.61 114.70 304.97 128.20 323.02 146.02 C 326.95 149.69 323.83 156.76 318.96 157.72 C 316.28 158.51 313.88 156.73 311.54 155.71 C 305.56 152.55 298.75 151.23 292.01 151.32 C 272.90 150.80 254.91 158.29 237.34 164.86 C 219.32 171.42 200.99 179.16 181.45 178.80 C 165.16 178.96 148.53 172.73 137.40 160.61 C 130.05 153.37 125.63 143.70 123.26 133.76 C 108.89 141.56 97.13 153.21 86.03 165.04 C 74.59 178.54 65.42 193.96 59.15 210.52 C 56.88 207.73 55.05 203.29 50.67 204.39 C 51.86 201.04 51.59 197.47 50.89 194.06 C 50.85 193.78 50.77 193.22 50.73 192.94 C 59.10 178.71 67.92 164.42 79.97 152.96 C 85.24 147.56 90.42 142.03 96.41 137.41 C 104.38 130.48 113.64 125.36 122.54 119.79 C 124.20 97.96 139.07 79.29 157.23 68.17 M 139.32 124.76 C 139.60 134.46 145.29 143.45 153.48 148.49 C 163.41 154.63 175.50 155.99 186.96 155.53 C 203.77 154.82 219.51 148.27 235.88 145.10 C 253.11 141.23 270.58 138.10 288.27 137.58 C 288.03 136.97 287.80 136.37 287.56 135.77 C 243.86 108.46 186.54 103.77 139.32 124.76 Z" />
<path fill="#97c75d" stroke="#97c75d" stroke-width="0.09375" opacity="1.00" d=" M 325.80 82.31 C 346.40 95.61 363.23 114.28 376.56 134.74 L 376.18 135.24 C 375.90 135.61 375.35 136.36 375.07 136.73 C 374.86 137.62 374.70 138.53 374.54 139.43 C 374.02 139.61 373.49 139.78 372.97 139.96 C 373.04 143.28 372.93 146.61 372.71 149.92 C 371.49 149.73 370.28 149.54 369.07 149.35 C 356.69 129.01 339.65 111.82 320.18 98.24 C 322.56 98.17 324.96 98.23 327.34 98.46 C 326.09 93.15 326.91 87.65 325.80 82.31 Z" />
<path fill="#8cbe59" stroke="#8cbe59" stroke-width="0.09375" opacity="1.00" d=" M 375.07 136.73 C 375.35 136.36 375.90 135.61 376.18 135.24 C 379.51 138.44 381.22 142.82 383.38 146.81 C 389.82 158.64 394.29 171.40 398.14 184.27 C 394.38 187.72 391.77 192.18 388.05 195.67 C 384.29 179.34 377.89 163.59 369.07 149.35 C 370.28 149.54 371.49 149.73 372.71 149.92 C 372.93 146.61 373.04 143.28 372.97 139.96 C 373.49 139.78 374.02 139.61 374.54 139.43 C 374.70 138.53 374.86 137.62 375.07 136.73 Z" />
<path fill="#066839" stroke="#066839" stroke-width="0.09375" opacity="1.00" d=" M 631.52 155.97 C 631.88 153.86 633.92 152.41 635.97 152.22 C 641.44 151.39 646.98 152.46 652.31 153.65 C 657.06 154.84 662.01 156.13 665.86 159.33 C 665.77 163.49 662.87 166.65 661.28 170.28 C 652.70 189.61 643.69 208.75 634.94 227.99 C 626.70 248.63 619.88 269.81 612.56 290.79 C 611.01 293.99 614.68 298.03 611.66 300.68 C 606.73 305.51 599.10 304.09 592.90 303.51 C 586.14 302.28 578.52 302.57 572.84 298.18 C 568.39 294.79 569.55 288.79 567.96 284.06 C 562.10 264.49 555.71 245.07 549.24 225.69 C 544.23 212.06 538.39 198.76 532.47 185.52 C 528.01 178.15 523.46 170.81 519.98 162.91 C 519.07 160.82 519.12 158.49 518.98 156.26 C 529.60 153.85 540.83 154.74 551.19 158.00 C 554.19 158.95 556.17 161.98 556.71 164.98 C 556.92 168.96 555.78 172.99 556.97 176.92 C 559.62 187.27 562.56 197.55 565.13 207.93 C 571.88 232.14 581.73 255.35 592.29 278.11 C 602.53 260.82 610.69 242.29 617.72 223.48 C 623.71 205.33 627.70 186.61 631.80 167.97 C 632.85 163.99 631.13 159.98 631.52 155.97 Z" />
<path fill="#8cbe59" stroke="#8cbe59" stroke-width="0.09375" opacity="1.00" d=" M 518.80 155.84 C 525.00 153.72 531.61 154.58 538.03 154.61 C 542.62 154.63 546.98 156.31 551.19 158.00 C 540.83 154.74 529.60 153.85 518.98 156.26 C 519.12 158.49 519.07 160.82 519.98 162.91 C 523.46 170.81 528.01 178.15 532.47 185.52 C 530.85 186.89 529.69 188.69 528.83 190.62 C 522.58 204.24 519.11 218.88 514.26 233.01 C 512.28 241.10 508.50 248.67 507.13 256.91 L 506.58 257.04 C 506.00 257.17 504.84 257.44 504.26 257.57 C 506.61 247.07 504.30 236.28 505.89 225.70 C 506.69 221.36 505.60 217.01 503.76 213.09 L 503.55 212.60 C 507.88 198.53 512.01 184.41 516.21 170.31 C 518.28 165.73 517.13 160.54 518.80 155.84 Z" />
<path fill="#066839" stroke="#066839" stroke-width="0.09375" opacity="1.00" d=" M 917.28 165.27 C 919.82 162.11 924.35 162.45 928.00 162.52 C 934.25 162.90 940.62 163.96 946.34 166.65 C 948.69 167.76 951.53 170.08 950.55 173.01 C 948.91 176.49 947.06 179.92 946.43 183.76 C 938.83 218.53 936.67 254.93 943.86 289.95 C 944.37 293.13 947.36 295.63 946.81 299.00 C 946.88 301.47 943.91 302.11 942.02 302.51 C 935.58 303.19 929.12 302.03 922.77 301.09 C 920.14 300.45 916.51 300.13 915.55 297.10 C 917.36 290.54 917.82 283.72 918.25 276.95 C 905.48 290.06 888.90 301.24 870.00 301.69 C 855.16 302.46 840.45 292.77 835.33 278.82 C 831.42 268.36 832.03 256.77 834.34 246.02 C 837.02 233.28 844.49 221.66 854.93 213.90 C 866.32 204.81 881.61 199.81 896.08 203.10 C 906.15 205.05 914.71 211.18 921.90 218.23 C 922.69 204.40 921.80 190.46 919.54 176.78 C 919.11 172.88 916.21 169.28 917.28 165.27 M 891.29 219.32 C 876.89 221.29 866.29 233.31 861.07 246.17 C 857.55 255.43 855.16 265.83 858.19 275.56 C 859.76 281.31 864.17 286.57 870.10 288.04 C 876.76 289.29 883.84 288.08 889.71 284.66 C 905.17 276.24 918.79 261.37 919.77 243.03 C 920.80 235.34 915.92 228.37 909.88 224.15 C 904.51 220.47 897.86 217.87 891.29 219.32 Z" />
<path fill="#69a44f" stroke="#69a44f" stroke-width="0.09375" opacity="1.00" d=" M 388.05 195.67 C 391.77 192.18 394.38 187.72 398.14 184.27 C 403.40 203.98 405.37 224.46 404.31 244.82 L 403.73 245.20 C 398.34 248.58 396.67 255.39 391.72 259.31 C 391.32 257.51 390.94 255.72 390.58 253.93 C 382.53 251.11 373.80 252.21 365.87 254.89 C 368.70 251.07 372.51 248.10 375.07 244.07 C 377.20 240.71 380.53 238.43 384.03 236.69 C 386.77 237.22 389.48 237.88 392.20 238.51 C 392.67 224.12 391.22 209.70 388.05 195.67 Z" />
<path fill="#97c75d" stroke="#97c75d" stroke-width="0.09375" opacity="1.00" d=" M 35.71 231.90 C 39.31 218.82 43.74 205.60 50.89 194.06 C 51.59 197.47 51.86 201.04 50.67 204.39 C 55.05 203.29 56.88 207.73 59.15 210.52 C 54.74 222.54 51.78 235.06 50.09 247.75 C 48.00 244.88 45.85 241.83 42.35 240.60 C 38.63 239.20 37.10 235.29 35.71 231.90 Z" />
<path fill="#066839" stroke="#066839" stroke-width="0.09375" opacity="1.00" d=" M 810.45 205.52 C 813.66 200.40 818.78 195.92 825.02 195.39 C 832.95 194.34 840.68 198.42 846.19 203.84 C 848.39 205.64 848.31 209.33 845.66 210.66 C 838.82 214.78 830.48 212.23 822.98 212.72 C 817.64 212.26 814.91 217.71 812.31 221.42 C 799.69 241.51 793.83 266.27 798.17 289.77 C 798.74 293.12 801.84 296.08 800.59 299.64 C 798.76 302.44 795.00 302.57 792.00 302.49 C 786.44 302.16 780.85 301.64 775.41 300.42 C 773.45 299.84 771.04 299.12 770.20 297.08 C 770.79 294.01 772.23 291.15 772.46 288.01 C 774.96 262.37 773.71 236.41 769.28 211.05 C 769.15 208.94 768.31 205.90 770.86 204.90 C 776.41 202.42 782.81 203.31 788.59 204.52 C 792.85 205.66 797.69 206.72 800.54 210.42 C 801.70 213.92 799.16 217.08 798.35 220.35 C 797.28 223.37 797.32 226.60 797.39 229.76 C 799.51 220.61 805.46 213.24 810.45 205.52 Z" />
<path fill="#066839" stroke="#066839" stroke-width="0.09375" opacity="1.00" d=" M 659.46 225.52 C 669.63 211.61 686.18 203.56 702.97 201.17 C 713.37 200.74 723.81 202.50 733.79 205.40 C 748.92 209.64 759.07 225.63 757.78 241.04 C 757.20 246.19 752.53 249.57 747.89 250.92 C 732.11 256.02 715.35 256.16 698.98 257.53 C 692.23 258.17 685.39 257.49 678.70 258.67 C 678.70 263.66 678.35 268.73 679.53 273.63 C 681.02 280.26 685.12 286.54 691.38 289.54 C 697.63 292.45 704.88 292.12 711.48 290.70 C 722.56 288.04 732.41 281.39 740.07 273.08 C 743.02 269.96 744.81 265.90 747.89 262.90 C 753.92 259.39 763.94 267.69 759.10 274.03 C 752.42 285.74 741.66 295.26 728.79 299.55 C 714.97 304.74 699.50 304.61 685.45 300.42 C 673.07 297.01 661.87 288.94 655.24 277.88 C 645.80 261.71 647.89 240.09 659.46 225.52 M 707.77 215.52 C 693.90 220.58 684.33 233.61 680.48 247.49 C 697.25 245.44 714.59 244.72 730.44 238.32 C 733.72 230.31 730.59 220.45 723.84 215.22 C 719.08 211.62 712.79 213.62 707.77 215.52 Z" />
<path fill="#066839" stroke="#066839" stroke-width="0.09375" opacity="1.00" d=" M 1001.49 201.69 C 1012.98 199.97 1024.71 202.38 1035.78 205.42 C 1049.91 209.43 1059.53 223.63 1059.87 238.02 C 1060.15 242.40 1057.99 246.97 1054.03 249.06 C 1049.35 251.52 1044.07 252.52 1038.96 253.70 C 1019.97 257.10 1000.59 257.30 981.42 258.49 C 978.70 269.34 982.07 283.73 992.84 289.29 C 1002.01 293.56 1012.84 291.81 1021.82 287.87 C 1032.00 283.12 1041.10 275.73 1047.13 266.18 C 1048.07 264.84 1048.96 263.33 1050.42 262.47 C 1055.65 260.61 1061.29 265.01 1062.53 269.99 C 1061.27 275.43 1057.18 279.62 1053.91 283.97 C 1039.04 301.22 1013.83 306.76 992.19 301.72 C 978.73 298.84 965.78 291.41 958.26 279.64 C 949.68 266.45 949.08 248.85 955.76 234.73 C 964.13 216.76 982.40 205.23 1001.49 201.69 M 1010.48 215.23 C 996.40 220.06 986.13 233.20 982.73 247.41 C 999.43 245.41 1016.65 244.65 1032.45 238.34 C 1035.56 229.64 1032.18 218.50 1023.77 214.11 C 1019.46 212.31 1014.66 213.73 1010.48 215.23 Z" />
<path fill="#066839" stroke="#066839" stroke-width="0.09375" opacity="1.00" d=" M 1109.32 201.31 C 1124.25 199.04 1139.95 201.55 1153.28 208.72 C 1159.73 211.99 1165.60 217.61 1166.92 224.98 C 1167.57 229.31 1167.15 233.71 1167.58 238.07 C 1167.87 240.13 1165.63 241.44 1163.89 241.72 C 1156.99 242.56 1149.76 241.55 1143.52 238.42 C 1141.88 237.51 1139.78 236.20 1140.06 234.02 C 1140.38 228.61 1142.14 222.97 1140.28 217.66 C 1138.72 213.58 1134.10 211.84 1130.03 211.91 C 1119.05 211.93 1108.46 217.10 1100.75 224.74 C 1096.25 229.90 1092.26 236.87 1093.84 243.93 C 1096.36 249.86 1103.31 251.59 1109.16 251.91 C 1124.27 252.55 1140.08 250.39 1154.46 256.31 C 1161.94 259.18 1169.39 265.36 1169.84 273.93 C 1170.49 283.12 1163.11 290.34 1156.09 295.10 C 1139.39 305.20 1118.55 306.82 1099.86 302.01 C 1086.78 299.24 1073.83 291.34 1068.60 278.56 C 1067.37 275.93 1067.27 271.24 1070.98 270.75 C 1075.85 270.02 1081.14 271.04 1085.23 273.85 C 1089.80 277.12 1089.30 283.93 1093.93 287.11 C 1098.52 290.54 1104.46 291.17 1110.02 291.39 C 1117.84 291.94 1125.73 290.22 1132.84 287.00 C 1137.13 284.82 1141.83 281.94 1143.20 276.99 C 1144.15 271.74 1139.67 267.14 1134.72 266.32 C 1118.25 263.83 1100.90 269.05 1084.93 262.93 C 1077.66 260.46 1070.93 255.23 1068.31 247.82 C 1064.67 239.06 1066.65 228.71 1072.26 221.25 C 1080.84 209.43 1095.11 203.03 1109.32 201.31 Z" />
<path fill="#97c75d" stroke="#97c75d" stroke-width="0.09375" opacity="1.00" d=" M 498.06 230.29 C 500.05 224.59 501.28 218.61 503.76 213.09 C 505.60 217.01 506.69 221.36 505.89 225.70 C 504.30 236.28 506.61 247.07 504.26 257.57 C 504.84 257.44 506.00 257.17 506.58 257.04 C 503.59 270.97 499.86 284.78 498.07 298.96 C 497.37 301.67 497.87 304.41 498.24 307.13 C 497.31 309.25 495.21 310.77 492.94 311.12 C 487.51 311.75 482.08 312.70 476.60 312.27 C 477.22 311.00 477.85 309.75 478.48 308.49 C 477.46 306.45 475.80 304.48 476.04 302.06 C 476.38 296.79 476.66 291.52 476.67 286.23 C 476.15 286.52 475.09 287.11 474.56 287.40 C 482.80 268.56 491.97 250.00 498.06 230.29 Z" />
<path fill="#97c75d" stroke="#97c75d" stroke-width="0.09375" opacity="1.00" d=" M 87.67 217.44 C 90.24 215.96 94.20 217.27 94.68 220.36 C 95.58 225.29 94.96 230.39 96.03 235.30 C 98.72 248.83 106.09 261.09 115.17 271.30 C 115.03 271.98 114.75 273.34 114.60 274.02 C 109.59 274.84 104.68 273.29 99.77 272.54 C 95.14 265.25 91.54 257.38 88.40 249.35 C 87.99 249.27 87.16 249.12 86.75 249.04 C 86.40 250.93 86.02 252.82 85.68 254.72 C 81.95 252.27 78.40 249.57 74.92 246.77 C 76.57 238.84 79.22 231.16 82.25 223.65 C 83.33 221.09 84.74 218.20 87.67 217.44 Z" />
<path fill="#8cbe59" stroke="#8cbe59" stroke-width="0.09375" opacity="1.00" d=" M 35.71 231.90 C 37.10 235.29 38.63 239.20 42.35 240.60 C 45.85 241.83 48.00 244.88 50.09 247.75 C 48.99 256.77 48.38 265.86 48.64 274.95 C 41.87 271.11 35.27 266.68 30.60 260.32 C 30.82 250.70 33.49 241.24 35.71 231.90 Z" />
<path fill="#7cb153" stroke="#7cb153" stroke-width="0.09375" opacity="1.00" d=" M 331.70 249.69 C 346.72 239.10 365.84 234.66 384.03 236.69 C 380.53 238.43 377.20 240.71 375.07 244.07 C 372.51 248.10 368.70 251.07 365.87 254.89 C 358.83 258.92 351.68 263.08 346.31 269.29 C 340.47 275.27 336.98 282.96 333.26 290.32 C 333.47 288.93 333.65 287.55 333.83 286.17 C 326.37 292.06 318.07 296.67 309.04 299.69 C 308.74 299.33 308.15 298.62 307.85 298.27 C 311.73 280.65 316.72 261.26 331.70 249.69 Z" />
<path fill="#4f9649" stroke="#4f9649" stroke-width="0.09375" opacity="1.00" d=" M 391.72 259.31 C 396.67 255.39 398.34 248.58 403.73 245.20 C 406.48 245.54 408.08 248.24 410.06 249.93 C 413.99 253.57 417.32 257.79 419.78 262.57 C 414.69 266.51 411.16 272.11 407.72 277.44 C 406.55 284.32 408.20 291.42 406.49 298.28 C 406.68 287.23 407.03 275.47 401.51 265.50 C 397.77 281.76 392.57 297.80 384.48 312.46 C 380.09 312.29 378.20 316.92 374.73 318.76 C 370.47 321.14 367.12 324.72 363.29 327.68 C 363.17 326.77 362.92 324.95 362.80 324.04 C 377.90 303.64 387.93 279.21 390.58 253.93 C 390.94 255.72 391.32 257.51 391.72 259.31 Z" />
<path fill="#8cbe59" stroke="#8cbe59" stroke-width="0.09375" opacity="1.00" d=" M 71.94 298.10 C 70.43 280.98 70.84 263.53 74.92 246.77 C 78.40 249.57 81.95 252.27 85.68 254.72 C 83.74 266.28 83.26 278.04 84.02 289.73 C 84.04 291.33 84.03 292.93 84.03 294.54 C 81.25 291.48 77.07 290.67 73.60 288.70 C 71.40 291.39 71.43 294.84 71.94 298.10 Z" />
<path fill="#7cb153" stroke="#7cb153" stroke-width="0.09375" opacity="1.00" d=" M 30.60 260.32 C 35.27 266.68 41.87 271.11 48.64 274.95 C 48.97 287.17 50.22 299.37 52.72 311.34 C 44.30 308.32 37.51 302.34 30.49 297.02 L 29.84 296.58 C 29.49 284.53 28.43 272.23 30.60 260.32 Z" />
<path fill="#2d8844" stroke="#2d8844" stroke-width="0.09375" opacity="1.00" d=" M 407.72 277.44 C 411.16 272.11 414.69 266.51 419.78 262.57 C 424.39 271.94 426.89 282.23 427.40 292.65 C 425.10 294.11 422.66 295.62 421.37 298.12 C 417.31 305.57 409.94 310.17 404.00 315.92 C 405.25 310.11 405.83 304.18 406.49 298.28 C 408.20 291.42 406.55 284.32 407.72 277.44 Z" />
<path fill="#8cbe59" stroke="#8cbe59" stroke-width="0.09375" opacity="1.00" d=" M 115.17 271.30 C 127.00 284.90 141.48 295.81 154.45 308.24 C 152.71 309.56 150.97 310.88 149.23 312.20 C 143.18 309.96 136.32 310.35 130.78 306.73 C 129.40 307.16 128.02 307.59 126.65 308.03 C 116.94 296.80 107.56 285.20 99.77 272.54 C 104.68 273.29 109.59 274.84 114.60 274.02 C 114.75 273.34 115.03 271.98 115.17 271.30 Z" />
<path fill="#69a44f" stroke="#69a44f" stroke-width="0.09375" opacity="1.00" d=" M 309.04 299.69 C 318.07 296.67 326.37 292.06 333.83 286.17 C 333.65 287.55 333.47 288.93 333.26 290.32 C 328.79 300.74 324.34 311.19 320.36 321.81 C 314.26 324.97 308.38 330.29 301.13 329.67 C 301.05 328.98 300.90 327.60 300.82 326.91 C 303.45 317.43 305.84 307.89 307.85 298.27 C 308.15 298.62 308.74 299.33 309.04 299.69 Z" />
<path fill="#a3d061" stroke="#a3d061" stroke-width="0.09375" opacity="1.00" d=" M 474.56 287.40 C 475.09 287.11 476.15 286.52 476.67 286.23 C 476.66 291.52 476.38 296.79 476.04 302.06 C 475.80 304.48 477.46 306.45 478.48 308.49 C 477.85 309.75 477.22 311.00 476.60 312.27 C 472.19 311.13 466.76 310.64 464.55 305.98 C 464.67 303.51 466.48 301.69 467.96 299.91 C 470.98 296.21 471.54 291.06 474.56 287.40 Z" />
<path fill="#7cb153" stroke="#7cb153" stroke-width="0.09375" opacity="1.00" d=" M 73.60 288.70 C 77.07 290.67 81.25 291.48 84.03 294.54 C 84.03 292.93 84.04 291.33 84.02 289.73 C 84.99 298.11 86.07 306.50 88.04 314.71 C 82.91 315.50 78.06 313.70 73.93 310.79 C 73.18 306.58 72.42 302.36 71.94 298.10 C 71.43 294.84 71.40 291.39 73.60 288.70 Z" />
<path fill="#0f7f40" stroke="#0f7f40" stroke-width="0.09375" opacity="1.00" d=" M 421.37 298.12 C 422.66 295.62 425.10 294.11 427.40 292.65 C 427.60 306.27 425.12 319.87 420.60 332.71 C 412.62 355.48 399.54 376.43 382.58 393.59 C 348.04 428.76 299.30 449.54 250.00 449.93 C 206.87 450.83 163.18 436.50 130.15 408.48 C 118.93 409.65 107.39 409.08 96.76 405.02 C 85.30 400.52 74.28 393.61 66.67 383.81 C 69.05 384.16 71.44 384.55 73.69 385.40 C 85.43 390.11 97.89 392.58 109.97 396.24 C 120.88 398.13 131.87 399.62 142.75 401.71 C 146.15 402.81 148.95 405.15 152.12 406.75 C 182.30 426.83 218.76 437.34 255.01 436.02 C 280.14 435.08 304.65 426.90 326.29 414.29 C 352.80 399.19 375.63 377.27 390.66 350.63 C 396.81 339.82 401.41 328.09 404.00 315.92 C 409.94 310.17 417.31 305.57 421.37 298.12 Z" />
<path fill="#69a44f" stroke="#69a44f" stroke-width="0.09375" opacity="1.00" d=" M 30.49 297.02 C 37.51 302.34 44.30 308.32 52.72 311.34 C 55.00 322.03 58.42 332.44 62.28 342.65 C 59.51 342.55 56.70 342.17 54.35 340.57 C 49.32 337.26 42.37 336.20 39.65 330.17 C 39.04 330.30 37.81 330.55 37.20 330.68 L 36.80 330.76 C 33.83 319.73 30.66 308.51 30.49 297.02 Z" />
<path fill="#7cb153" stroke="#7cb153" stroke-width="0.09375" opacity="1.00" d=" M 126.65 308.03 C 128.02 307.59 129.40 307.16 130.78 306.73 C 136.32 310.35 143.18 309.96 149.23 312.20 C 150.97 310.88 152.71 309.56 154.45 308.24 C 163.13 316.42 171.79 325.14 176.47 336.32 C 169.14 342.21 159.18 336.93 150.75 339.07 C 144.09 327.73 135.20 317.95 126.65 308.03 Z" />
<path fill="#69a44f" stroke="#69a44f" stroke-width="0.09375" opacity="1.00" d=" M 73.93 310.79 C 78.06 313.70 82.91 315.50 88.04 314.71 C 90.94 325.41 94.61 335.92 99.53 345.87 C 99.23 346.51 98.63 347.79 98.33 348.43 C 93.71 346.42 88.76 345.40 83.89 344.18 C 79.46 333.42 76.10 322.22 73.93 310.79 Z" />
<path fill="#2d8844" stroke="#2d8844" stroke-width="0.09375" opacity="1.00" d=" M 374.73 318.76 C 378.20 316.92 380.09 312.29 384.48 312.46 C 378.94 323.16 371.98 333.08 364.21 342.28 C 365.39 340.06 366.06 337.63 366.50 335.17 C 360.08 339.91 353.87 344.94 346.59 348.36 C 346.02 349.24 345.45 350.13 344.89 351.02 C 343.56 350.72 342.23 350.41 340.91 350.11 C 341.64 348.73 342.36 347.35 343.16 346.01 C 350.26 339.20 356.95 331.97 362.80 324.04 C 362.92 324.95 363.17 326.77 363.29 327.68 C 367.12 324.72 370.47 321.14 374.73 318.76 Z" />
<path fill="#4f9649" stroke="#4f9649" stroke-width="0.09375" opacity="1.00" d=" M 301.13 329.67 C 308.38 330.29 314.26 324.97 320.36 321.81 C 316.07 333.20 312.11 344.73 307.18 355.85 C 306.90 355.46 306.32 354.67 306.04 354.28 C 301.46 357.03 296.65 359.37 292.09 362.14 C 290.09 363.40 287.05 364.59 285.35 362.22 C 292.40 351.38 297.04 339.21 300.82 326.91 C 300.90 327.60 301.05 328.98 301.13 329.67 Z" />
<path fill="#4f9649" stroke="#4f9649" stroke-width="0.09375" opacity="1.00" d=" M 37.20 330.68 C 37.81 330.55 39.04 330.30 39.65 330.17 C 42.37 336.20 49.32 337.26 54.35 340.57 C 56.70 342.17 59.51 342.55 62.28 342.65 C 64.94 348.00 67.54 353.41 70.76 358.46 C 69.73 359.19 68.71 359.93 67.69 360.67 C 59.90 358.63 53.19 353.89 45.39 351.96 C 41.93 345.19 38.88 338.11 37.20 330.68 Z" />
<path fill="#0f7f40" stroke="#0f7f40" stroke-width="0.09375" opacity="1.00" d=" M 346.59 348.36 C 353.87 344.94 360.08 339.91 366.50 335.17 C 366.06 337.63 365.39 340.06 364.21 342.28 C 338.87 371.93 303.66 392.60 265.83 401.67 C 263.87 401.93 261.46 402.60 259.84 401.07 C 257.37 399.02 257.47 395.24 258.72 392.55 C 260.46 389.43 263.50 387.35 266.14 385.05 C 273.11 382.65 280.64 382.23 287.40 379.23 C 289.02 379.65 290.65 380.06 292.30 380.35 C 292.49 379.86 292.87 378.89 293.06 378.40 C 311.55 370.79 328.58 359.67 343.16 346.01 C 342.36 347.35 341.64 348.73 340.91 350.11 C 342.23 350.41 343.56 350.72 344.89 351.02 C 345.45 350.13 346.02 349.24 346.59 348.36 Z" />
<path fill="#69a44f" stroke="#69a44f" stroke-width="0.09375" opacity="1.00" d=" M 176.47 336.32 C 181.10 346.96 181.59 359.11 178.07 370.14 C 172.70 365.80 165.49 366.19 159.03 366.88 C 157.21 367.01 156.25 368.75 155.21 370.00 C 159.00 359.66 156.38 348.20 150.75 339.07 C 159.18 336.93 169.14 342.21 176.47 336.32 Z" />
<path fill="#4f9649" stroke="#4f9649" stroke-width="0.09375" opacity="1.00" d=" M 83.89 344.18 C 88.76 345.40 93.71 346.42 98.33 348.43 C 98.63 347.79 99.23 346.51 99.53 345.87 C 104.29 355.59 110.14 364.76 116.70 373.38 C 114.97 372.56 113.19 371.86 111.42 371.14 C 110.91 371.43 110.41 371.73 109.91 372.03 C 105.02 370.23 100.28 368.00 95.28 366.52 C 90.90 359.39 87.15 351.88 83.89 344.18 Z" />
<path fill="#2d8844" stroke="#2d8844" stroke-width="0.09375" opacity="1.00" d=" M 45.39 351.96 C 53.19 353.89 59.90 358.63 67.69 360.67 C 68.71 359.93 69.73 359.19 70.76 358.46 C 81.40 373.56 95.35 388.13 113.87 392.74 C 107.33 384.26 100.45 375.96 95.28 366.52 C 100.28 368.00 105.02 370.23 109.91 372.03 C 110.41 371.73 110.91 371.43 111.42 371.14 C 113.19 371.86 114.97 372.56 116.70 373.38 C 121.63 379.39 126.82 385.20 132.41 390.61 C 133.42 391.31 134.51 392.95 135.91 392.20 C 142.71 389.81 147.76 384.08 151.51 378.13 C 153.37 384.89 161.41 383.32 166.77 383.57 C 168.13 382.68 169.50 381.79 170.88 380.92 C 170.03 383.70 169.16 386.49 167.99 389.16 C 163.04 395.74 155.85 400.15 148.47 403.53 C 149.66 404.62 150.86 405.72 152.12 406.75 C 148.95 405.15 146.15 402.81 142.75 401.71 C 131.87 399.62 120.88 398.13 109.97 396.24 C 97.89 392.58 85.43 390.11 73.69 385.40 C 71.44 384.55 69.05 384.16 66.67 383.81 L 66.01 383.71 C 57.40 374.40 50.44 363.57 45.39 351.96 Z" />
<path fill="#2d8844" stroke="#2d8844" stroke-width="0.09375" opacity="1.00" d=" M 292.09 362.14 C 296.65 359.37 301.46 357.03 306.04 354.28 C 306.32 354.67 306.90 355.46 307.18 355.85 C 304.19 361.74 300.70 367.40 296.48 372.48 C 294.97 374.22 293.70 376.17 293.06 378.40 C 292.87 378.89 292.49 379.86 292.30 380.35 C 290.65 380.06 289.02 379.65 287.40 379.23 C 280.64 382.23 273.11 382.65 266.14 385.05 C 273.44 378.26 279.97 370.62 285.35 362.22 C 287.05 364.59 290.09 363.40 292.09 362.14 Z" />
<path fill="#4f9649" stroke="#4f9649" stroke-width="0.09375" opacity="1.00" d=" M 155.21 370.00 C 156.25 368.75 157.21 367.01 159.03 366.88 C 165.49 366.19 172.70 365.80 178.07 370.14 C 175.96 377.05 172.55 383.55 167.99 389.16 C 169.16 386.49 170.03 383.70 170.88 380.92 C 169.50 381.79 168.13 382.68 166.77 383.57 C 161.41 383.32 153.37 384.89 151.51 378.13 C 153.01 375.55 154.16 372.79 155.21 370.00 Z" />
</svg>
