<?xml version="1.0" encoding="UTF-8" ?>
<!DOCTYPE svg PUBLIC "-//W3C//DTD SVG 1.1//EN" "http://www.w3.org/Graphics/SVG/1.1/DTD/svg11.dtd">
<svg viewBox="0 0 343 343" version="1.1" xmlns="http://www.w3.org/2000/svg">
<path fill="#066839" stroke="#066839" stroke-width="0.09375" opacity="1.00" d=" M 168.56 0.00 L 174.48 0.00 C 205.81 0.61 236.97 9.79 263.37 26.70 C 290.44 43.87 312.54 68.76 326.32 97.71 C 336.42 118.60 341.80 141.56 343.00 164.69 L 343.00 177.37 C 341.81 207.97 332.55 238.24 315.91 263.99 C 298.62 290.99 273.63 313.02 244.60 326.66 C 222.99 336.90 199.21 342.36 175.33 343.00 L 167.71 343.00 C 136.40 342.23 105.28 332.92 78.96 315.88 C 48.97 296.70 25.22 267.95 12.11 234.85 C 4.71 216.61 0.96 197.06 0.00 177.44 L 0.00 168.41 C 0.52 145.49 5.40 122.65 14.83 101.72 C 28.46 71.07 51.33 44.63 79.67 26.68 C 106.07 9.76 137.24 0.61 168.56 0.00 M 154.60 9.85 C 120.64 13.04 88.11 28.02 62.76 50.70 C 38.07 72.84 20.63 102.75 12.94 134.97 C 7.11 162.32 7.58 191.27 15.66 218.11 C 24.54 246.88 41.15 273.35 63.83 293.23 C 83.71 310.95 108.12 323.40 133.93 329.82 C 158.54 335.37 184.40 335.37 209.02 329.83 C 234.86 323.40 259.31 310.96 279.21 293.20 C 303.46 271.92 320.77 243.12 329.08 212.01 C 335.26 187.36 335.50 161.30 330.39 136.44 C 322.80 103.20 304.81 72.30 279.16 49.77 C 259.49 32.26 235.42 19.90 209.94 13.39 C 191.85 9.18 173.08 8.08 154.60 9.85 Z" />
<path fill="#066839" stroke="#066839" stroke-width="0.09375" opacity="1.00" d=" M 163.10 82.10 C 171.25 74.17 182.73 70.40 193.95 70.17 C 203.93 70.03 213.92 70.45 223.86 71.44 C 223.92 82.16 223.89 92.88 223.88 103.60 C 216.93 103.61 209.98 103.54 203.03 103.64 C 198.50 103.81 193.48 104.83 190.42 108.47 C 187.79 111.68 187.22 116.01 187.20 120.03 C 187.19 128.05 187.16 136.08 187.23 144.10 C 199.05 144.08 210.88 144.15 222.70 144.07 C 221.21 156.00 219.59 167.91 218.11 179.85 C 207.81 179.86 197.51 179.84 187.21 179.85 C 187.16 210.54 187.21 241.23 187.19 271.93 C 174.85 271.94 162.51 271.90 150.17 271.95 C 150.13 241.25 150.17 210.55 150.14 179.86 C 139.80 179.85 129.46 179.84 119.12 179.86 C 119.10 167.94 119.10 156.01 119.12 144.09 C 129.47 144.04 139.82 144.25 150.17 143.98 C 150.16 134.33 150.11 124.67 150.19 115.02 C 150.41 103.03 154.34 90.61 163.10 82.10 Z" />
</svg>
