<?xml version="1.0" encoding="UTF-8" ?>
<!DOCTYPE svg PUBLIC "-//W3C//DTD SVG 1.1//EN" "http://www.w3.org/Graphics/SVG/1.1/DTD/svg11.dtd">
<svg viewBox="0 0 343 343" version="1.1" xmlns="http://www.w3.org/2000/svg">
<path fill="#066839" stroke="#066839" stroke-width="0.09375" opacity="1.00" d=" M 168.41 0.00 L 174.58 0.00 C 206.35 0.64 237.96 10.10 264.59 27.49 C 294.98 47.09 318.89 76.54 331.74 110.35 C 338.49 127.64 341.92 146.05 343.00 164.54 L 343.00 177.56 C 341.76 208.34 332.37 238.77 315.52 264.59 C 297.98 291.74 272.62 313.81 243.23 327.30 C 222.04 337.11 198.81 342.34 175.48 343.00 L 167.55 343.00 C 135.61 342.18 103.88 332.47 77.24 314.76 C 47.42 295.17 23.97 266.07 11.28 232.72 C 4.41 215.13 0.96 196.37 0.00 177.55 L 0.00 168.33 C 0.50 150.40 3.40 132.49 9.37 115.55 C 21.08 81.39 44.00 51.24 73.66 30.67 C 101.26 11.29 134.73 0.66 168.41 0.00 M 154.58 9.85 C 118.49 13.27 84.01 29.92 58.06 55.10 C 35.82 76.74 20.11 104.89 12.92 135.05 C 7.12 162.34 7.59 191.22 15.64 218.02 C 24.51 246.82 41.12 273.33 63.83 293.23 C 83.47 310.74 107.53 323.10 132.99 329.59 C 150.48 333.72 168.63 334.83 186.53 333.35 C 221.17 330.46 254.49 315.42 280.30 292.26 C 304.69 270.37 321.99 240.88 329.81 209.09 C 335.94 181.60 335.51 152.41 327.48 125.34 C 322.45 109.11 315.12 93.56 305.49 79.54 C 287.87 53.73 262.59 33.30 233.72 21.35 C 208.93 10.63 181.36 7.28 154.58 9.85 Z" />
<path fill="#066839" stroke="#066839" stroke-width="0.09375" opacity="1.00" d=" M 117.14 70.27 C 151.11 69.80 185.09 70.22 219.07 70.06 C 232.98 69.74 246.85 75.49 256.60 85.39 C 266.25 94.91 271.98 108.34 271.92 121.92 C 271.92 150.61 271.92 179.31 271.92 208.01 C 271.82 217.01 272.62 226.27 269.67 234.95 C 263.49 255.95 242.95 271.78 220.98 271.90 C 188.00 271.94 155.01 271.91 122.03 271.92 C 111.28 272.00 100.60 268.42 91.89 262.16 C 78.79 252.81 70.24 237.18 70.09 221.01 C 70.05 187.99 70.08 154.97 70.07 121.95 C 69.98 108.34 75.75 94.87 85.43 85.34 C 93.83 76.85 105.25 71.41 117.14 70.27 M 119.23 87.44 C 102.23 88.67 87.69 103.86 87.35 120.93 C 87.26 153.96 87.32 187.00 87.32 220.04 C 87.04 237.85 102.36 254.04 120.16 254.75 C 152.09 254.91 184.03 254.76 215.97 254.82 C 221.52 255.00 227.19 254.61 232.38 252.48 C 246.25 247.31 255.75 232.71 254.83 217.92 C 254.78 185.60 254.87 153.28 254.78 120.95 C 254.51 103.22 238.79 87.60 221.07 87.34 C 187.13 87.35 153.17 87.16 119.23 87.44 Z" />
<path fill="#066839" stroke="#066839" stroke-width="0.09375" opacity="1.00" d=" M 222.37 104.47 C 228.50 101.65 236.37 105.52 238.03 112.02 C 240.15 118.61 234.98 126.15 228.12 126.68 C 221.84 127.56 215.60 122.35 215.30 116.03 C 214.82 111.17 217.91 106.34 222.37 104.47 Z" />
<path fill="#066839" stroke="#066839" stroke-width="0.09375" opacity="1.00" d=" M 161.54 121.73 C 174.31 119.19 188.02 121.95 198.84 129.20 C 210.65 136.96 218.90 149.91 220.84 163.91 C 223.11 178.86 218.08 194.69 207.60 205.58 C 199.41 214.36 187.96 219.98 176.01 221.13 C 160.96 222.71 145.39 216.94 134.95 205.99 C 123.51 194.33 118.40 176.87 121.86 160.89 C 125.68 141.44 142.04 125.29 161.54 121.73 M 164.52 136.75 C 148.88 139.53 136.32 154.11 136.19 170.04 C 135.37 185.77 146.74 200.91 161.94 204.81 C 175.87 208.83 191.80 202.91 199.86 190.89 C 207.03 180.75 207.98 166.66 202.40 155.59 C 195.79 141.80 179.53 133.65 164.52 136.75 Z" />
</svg>
