<?xml version="1.0" encoding="UTF-8" ?>
<!DOCTYPE svg PUBLIC "-//W3C//DTD SVG 1.1//EN" "http://www.w3.org/Graphics/SVG/1.1/DTD/svg11.dtd">
<svg viewBox="0 0 383 383" version="1.1" xmlns="http://www.w3.org/2000/svg">
<path fill="#066839" stroke="#066839" stroke-width="0.09375" opacity="1.00" d=" M 188.65 0.00 L 194.37 0.00 C 228.81 0.59 263.07 10.43 292.31 28.71 C 324.30 48.53 350.31 77.95 365.84 112.26 C 376.55 135.50 382.17 160.95 383.00 186.51 L 383.00 197.23 C 381.92 227.75 373.80 258.06 358.78 284.70 C 343.13 312.82 320.23 336.84 292.96 353.90 C 263.82 372.28 229.62 382.27 195.20 383.00 L 187.83 383.00 C 153.92 382.28 120.21 372.58 91.34 354.71 C 58.84 334.75 32.46 304.92 16.87 270.09 C 6.43 247.28 0.98 222.36 0.00 197.33 L 0.00 185.08 C 1.03 163.25 5.19 141.47 13.39 121.16 C 28.13 83.53 55.29 50.98 89.48 29.47 C 118.98 10.71 153.72 0.59 188.65 0.00 M 173.59 11.87 C 148.80 13.86 124.81 22.04 103.15 34.09 C 67.44 54.08 38.87 86.59 23.79 124.66 C 9.68 158.52 7.80 196.76 15.41 232.43 C 23.43 265.16 40.17 295.98 64.42 319.53 C 87.66 343.12 117.88 359.43 149.92 367.43 C 177.50 373.54 206.45 373.51 233.99 367.21 C 263.19 359.76 290.78 345.40 313.00 324.96 C 323.19 315.39 332.68 305.02 340.54 293.42 C 356.62 269.41 367.88 241.75 370.79 212.86 C 372.64 196.64 372.35 180.18 370.00 164.03 C 367.84 147.24 362.39 131.02 355.33 115.70 C 346.25 96.03 333.63 77.98 318.03 62.93 C 300.06 44.78 277.85 31.09 254.00 22.09 C 228.54 12.21 200.68 9.48 173.59 11.87 Z" />
<path fill="#066839" stroke="#066839" stroke-width="0.09375" opacity="1.00" d=" M 108.49 90.77 C 114.55 89.34 121.18 90.30 126.46 93.66 C 135.61 98.97 140.44 110.95 137.07 121.06 C 133.89 132.40 121.53 140.23 109.93 137.93 C 98.72 136.07 89.66 125.40 90.04 113.97 C 89.90 103.21 98.10 93.23 108.49 90.77 Z" />
<path fill="#066839" stroke="#066839" stroke-width="0.09375" opacity="1.00" d=" M 201.73 176.26 C 209.15 162.91 223.84 154.53 238.98 153.93 C 250.19 153.58 262.06 155.06 271.67 161.28 C 279.10 166.04 284.34 173.68 287.10 181.98 C 292.09 196.40 291.79 211.89 291.78 226.95 C 291.79 248.56 291.75 270.16 291.79 291.77 C 277.99 291.78 264.18 291.77 250.38 291.77 C 250.41 268.83 250.40 245.89 250.39 222.96 C 250.19 214.86 250.06 206.23 245.90 199.02 C 243.13 194.00 237.62 190.99 232.01 190.51 C 224.30 189.77 215.52 191.00 210.12 197.10 C 204.50 203.63 203.29 212.68 203.12 221.00 C 203.11 244.58 203.10 268.16 203.12 291.74 C 189.26 291.82 175.40 291.75 161.53 291.77 C 161.50 246.93 161.50 202.09 161.53 157.25 C 174.78 157.24 188.04 157.25 201.29 157.24 C 201.55 163.57 200.74 169.98 201.73 176.26 Z" />
<path fill="#066839" stroke="#066839" stroke-width="0.09375" opacity="1.00" d=" M 93.25 157.27 C 107.09 157.21 120.92 157.26 134.76 157.24 C 134.72 202.09 134.72 246.93 134.76 291.78 C 120.92 291.75 107.09 291.81 93.25 291.75 C 93.25 246.92 93.26 202.10 93.25 157.27 Z" />
</svg>
