<?xml version="1.0" encoding="utf-8"?>
<!-- Generator: Adobe Illustrator 22.1.0, SVG Export Plug-In . SVG Version: 6.00 Build 0)  -->
<svg version="1.1" id="Layer_1" xmlns="http://www.w3.org/2000/svg" xmlns:xlink="http://www.w3.org/1999/xlink" x="0px" y="0px"
	 viewBox="0 0 1190 316" style="enable-background:new 0 0 1190 316;" xml:space="preserve">
<style type="text/css">
	.st0{fill:#98BB5F;stroke:#98BB5F;stroke-width:9.375000e-02;}
	.st1{fill:#7CBBDE;stroke:#7CBBDE;stroke-width:9.375000e-02;}
	.st2{fill:#EEDC4B;stroke:#EEDC4B;stroke-width:9.375000e-02;}
	.st3{fill:#4069AA;stroke:#4069AA;stroke-width:9.375000e-02;}
	.st4{fill:#DE9D3F;stroke:#DE9D3F;stroke-width:9.375000e-02;}
	.st5{fill:#FFFFFF;stroke:#FFFFFF;stroke-width:9.375000e-02;}
</style>
<path class="st0" d="M103.4,14.1c19.5-6.3,39.7-13.1,60.4-11.7c5.3,8.2,10.4,16.5,15.2,25c-9.4,9.3-5.1,26.2,7.7,29.7
	c0.1,65,0,130.1,0,195.1c-9.6,2.8-16.1,13.8-12.1,23.3c3.3,9.5,14.8,13.4,23.7,9.8c5.4,7.1,12.2,12.9,18.4,19.3
	c-35.2,12.5-74.5,11.3-109.5-1.4c0.2-8.5-1-17.4,0.4-25.7c20.9-24.5,41.6-49.1,62.7-73.3c-0.8-14.1,0-28.2-0.5-42.3
	c-17.6-9.1-35.1-18.3-52.5-27.8c4-10.1-3.5-21.7-13.9-23.3C103.3,78.7,103.5,46.4,103.4,14.1z"/>
<path class="st1" d="M173.3,2.3c25.1,1.9,50.1,8.9,71.2,22.9c-3.6,4.7-8.2,8.8-11,14C233,50,232.9,61,232.6,71.8
	c13.6,0.2,27.3,0,40.9,0.1c2.5,10.9,15.9,15.7,25.5,10.9c4.4,6.3,8.3,13.3,9.6,20.9c-17.8,9.1-35.3,18.9-52.7,28.8
	c-5.1-2.6-11.3-3.5-16.8-1.7c-7.1,2.8-10.7,10.9-9.7,18.1c0.2,6.8,6.2,11.2,11.8,13.8c0.4,15.4,0.1,30.9,0.5,46.4
	c12.3,9.1,24.8,17.9,37.2,26.9c-1.4,7,0.4,14.2,6,18.8c-16.5,19.5-36.3,37.1-60.4,46.4c-6.7-6.9-13.2-13.9-19.7-20.9
	c7.9-9.8,2-25.4-10.2-27.9c0-65,0-130.1,0-195.1c9.3-2,16.1-11.9,13.5-21.3c-2.2-9.5-12.9-15.2-22.1-12.6
	C181.8,16.3,177.9,9.1,173.3,2.3z"/>
<path class="st2" d="M75.5,29.2c6.8-4.6,13.3-10,21.3-12.3c0.2,31.4,0.1,62.8,0.1,94.2c-8.4,2.8-14.9,11.7-12.6,20.6
	c1.9,9.8,13.2,16.5,22.6,12.8c2.9-0.7,5.3-4.4,8.5-2.8c15.5,8.2,31,16.6,46.5,24.7c0,12,0.1,24-0.1,36c-19.7,23-39.5,46-59.2,69.1
	c-1.4,1.6-3.6,3-3.3,5.4c-0.1,7.6,0,15.3,0,22.9c-7.2-4-14.4-7.9-21.7-11.9c7.8-9.6,2.7-25.1-9.3-28c-0.3-16.6,0.2-33.3-0.2-49.9
	c-8.5-8.9-17.8-17-26.8-25.5c0-12.1,0-24.1,0-36.1c8.3-7.6,16.9-15.2,24.3-23.7c0.2-22,0.1-44,0.1-66C79.1,56.5,85.2,38.9,75.5,29.2
	z"/>
<path class="st3" d="M251.4,29.1c10.3,6.8,20.2,14.6,27.6,24.7c-2.7,2.9-4.6,6.4-5.8,10.2c-10.6,0-21.2,0.1-31.9,0
	c0.1-7.5-0.4-15.1,0.2-22.6C244.4,37,248.4,33.5,251.4,29.1z"/>
<path class="st4" d="M7.9,170C3.3,127,20.3,83.7,48.9,52c2.7,2.8,6,4.9,9.7,6.3c0,21.7,0,43.5,0,65.2c-7.6,5.7-13.6,13.1-20.7,19.3
	c-1.5,1.4-3.5,2.7-3.1,5c0,12.7,0,25.4,0,38.1c0.1,1.4-0.2,3.1,1,4.1c7.9,7.1,15.2,14.8,22.9,22.2c-0.1,15.9,0.1,31.9-0.1,47.8
	c-3,1.4-5.8,3.3-8.4,5.5C28.2,238.2,11.4,205.4,7.9,170z"/>
<path class="st5" d="M1058.7,95.1c3.5-0.2,7-0.2,10.5,0c0,40.7,0,81.4,0,122.1c-3.5,0-7,0-10.5,0c-0.1-4.9,0.1-9.8-0.1-14.7
	c-4.6,3.1-7.7,7.9-12.6,10.5c-16.4,10.5-39.7,8.3-53.6-5.4c-14.7-13-18.9-35.7-11-53.4c3.3-7.7,9.1-14,15.7-19.1
	c13.7-10,33.6-11.1,48.2-2.1c5.2,3.1,8.8,8,13.2,12.1C1059.2,128.4,1058.5,111.8,1058.7,95.1 M1017.4,137.7
	c-16.6,2.6-29.4,18.6-28.9,35.3c-0.6,13.4,7.4,26.3,18.9,32.7c13.8,7.6,32.4,4.3,43.1-7.3c13.6-15.1,11.8-41.8-4.7-54.1
	C1037.8,138.2,1027.3,136,1017.4,137.7z"/>
<path class="st5" d="M362.7,98.1c3.7-0.2,7.5-0.2,11.2-0.1c0.2,36.1,0,72.2,0.1,108.2c15.4,0,30.8,0.1,46.1,0
	c0.1,3.7,0.1,7.3,0,10.9c-19.1,0-38.3,0-57.5,0C362.7,177.5,362.8,137.8,362.7,98.1z"/>
<path class="st5" d="M547.3,98c3.9,0,7.8,0,11.7,0.1c8,28.4,16,56.8,24.1,85.2c2.6-1.5,3-4.6,4.1-7.1c10.3-26,20.7-51.9,31-77.9
	c0.6,0,1.7-0.1,2.2-0.1c11.6,28.6,21.9,57.7,34.3,85.9c8.7-28.4,16.7-57.1,24.8-85.7c3.8-0.3,7.7-0.3,11.5-0.1
	c-11,39.6-22.7,79.1-33.9,118.7c-0.5,0-1.5,0-2,0c-10.7-27-21.3-54.1-31.9-81.1c-1.3-3-2.1-6.3-4.2-9
	c-10.9,27.3-21.8,54.6-32.7,81.8c-1.3,3.3-2.4,6.7-4.5,9.5C569.5,178.4,559.1,137.9,547.3,98z"/>
<path class="st5" d="M714.3,98c22.8-0.1,45.6-0.1,68.3,0c0,3.7,0,7.3,0,11c-19,0.1-37.9-0.1-56.9,0.1c0,12.7,0,25.4,0,38.1
	c18.7,0,37.4-0.1,56.1,0.1c0.1,3.7,0.1,7.3-0.1,11c-18.7,0-37.4,0-56,0c0,16,0,31.9,0,47.9c18.7,0,37.4-0.1,56.1,0.1
	c0.1,3.7,0.1,7.3-0.1,11c-22.5-0.1-45,0.1-67.6-0.1C714.4,177.5,714.3,137.7,714.3,98z"/>
<path class="st5" d="M804.3,98.1c22.7-0.1,45.3-0.2,68,0.1c0,3.6,0,7.2,0,10.7c-18.9,0.4-37.7,0-56.6,0.2c0,12.7,0,25.4,0,38.2
	c18.7,0,37.4,0,56.1,0c0,3.7,0,7.4,0,11.1c-18.7,0-37.4,0-56.1,0c0,16,0,32,0,48c18.7,0,37.4,0,56.1,0c0,3.7,0,7.4,0,11.1
	c-22.5,0-45.1,0-67.6,0C804.2,177.5,804.1,137.8,804.3,98.1z"/>
<path class="st5" d="M893.7,98.1c22.7-0.3,45.4-0.2,68-0.1c0.1,3.6,0.1,7.3,0,10.9c-18.9,0.2-37.8-0.1-56.7,0.2
	c-0.1,12.7-0.1,25.4,0,38.1c18.7,0,37.4,0,56.2,0c0,3.7,0,7.4,0,11c-18.7,0.1-37.4-0.1-56.1,0.1c-0.1,16-0.1,31.9,0,47.9
	c18.7,0,37.5,0,56.2,0c0,3.7,0,7.4,0,11c-22.5,0-45,0-67.5,0C893.7,177.5,893.8,137.8,893.7,98.1z"/>
<path class="st3" d="M262.1,138.8c16.8-9.1,33.4-18.5,50.1-27.8c11.7,37.4,9.8,79.7-8.5,114.7c-6.7-2.4-15-1.9-20.3,3.3
	c-11.8-7.4-22.6-16.5-34.1-24.4c0.1-13.6-0.1-27.2,0.1-40.9C260.5,161.6,266.1,149.1,262.1,138.8z"/>
<path class="st5" d="M469.8,127.9c11.3-2.1,23.8-0.8,33.3,6.1c4.7,2.9,8,7.4,12,11c0.2-5.3,0.1-10.5,0.1-15.8c3.5,0,7.1,0,10.6,0
	c0,29.4,0,58.7,0,88.1c-3.5,0-7.1,0-10.6,0c0-4.9,0.1-9.7-0.1-14.6c-3.7,2.8-6.6,6.4-10.5,8.9c-12.4,9-29.6,10.5-43.5,4.2
	c-16.4-7.3-27.7-24.8-27-42.8C433.3,152,449.4,132.1,469.8,127.9 M474.4,137.7c-18.3,2.6-31.6,21.3-29.4,39.3
	c1.2,11.6,8.1,23,18.6,28.4c12.6,7.2,29.6,5.2,40.4-4.5c15.9-13.2,16-40.9,0.5-54.5C496.8,138.6,485,136,474.4,137.7z"/>
<path class="st5" d="M1105.9,139.9c14.7-15.5,41.6-17.5,58.1-3.8c3.4,2.3,5.3,6.3,8.9,8.4c0.2-5.1,0-10.1,0.2-15.2
	c3.5-0.1,7.1-0.1,10.7-0.1c-0.1,29.3-0.1,58.7,0,88.1c-3.5,0.1-7,0.1-10.6,0c-0.2-4.8-0.1-9.5-0.2-14.3c-3.2,2-5.6,5-8.6,7.3
	c-10.2,8.3-24.4,11.3-37.1,8.3c-19.9-4.1-35.2-23.3-35.2-43.5C1091.2,162,1096.2,148.7,1105.9,139.9 M1135.3,137.3
	c-17.7,0.8-32.5,17.2-32.6,34.7c-0.7,14.7,8.3,29.8,22.2,35.2c13.3,5.6,29.9,2.1,39.6-8.7c9.3-9.4,11.1-24.2,7.7-36.6
	C1167.8,146.3,1151.5,135.3,1135.3,137.3z"/>
</svg>
