<?xml version="1.0" encoding="UTF-8" ?>
<!DOCTYPE svg PUBLIC "-//W3C//DTD SVG 1.1//EN" "http://www.w3.org/Graphics/SVG/1.1/DTD/svg11.dtd">
<svg viewBox="0 0 343 343" version="1.1" xmlns="http://www.w3.org/2000/svg">
<path fill="#066839" stroke="#066839" stroke-width="0.09375" opacity="1.00" d=" M 168.46 0.00 L 174.51 0.00 C 205.80 0.62 236.93 9.78 263.31 26.66 C 290.40 43.82 312.51 68.72 326.30 97.67 C 336.40 118.52 341.77 141.46 343.00 164.56 L 343.00 177.50 C 341.97 200.66 336.65 223.68 326.63 244.63 C 312.76 274.12 290.26 299.45 262.66 316.77 C 236.67 333.22 206.16 342.21 175.44 343.00 L 167.61 343.00 C 135.87 342.20 104.33 332.62 77.78 315.12 C 47.91 295.66 24.37 266.67 11.54 233.40 C 4.51 215.61 0.97 196.61 0.00 177.55 L 0.00 168.37 C 0.54 144.25 5.96 120.22 16.35 98.42 C 30.10 69.19 52.31 44.04 79.58 26.73 C 105.98 9.80 137.14 0.63 168.46 0.00 M 154.54 9.85 C 123.15 12.80 92.98 25.88 68.60 45.72 C 48.10 62.40 31.91 84.24 21.64 108.58 C 8.45 138.75 6.07 172.99 12.31 205.14 C 21.09 245.90 45.90 283.10 80.65 306.26 C 102.48 320.84 127.77 330.62 153.99 333.10 C 177.50 335.37 201.68 333.33 224.02 325.38 C 246.93 317.41 268.16 304.51 285.41 287.43 C 307.77 265.53 323.45 236.99 330.41 206.50 C 335.65 180.82 335.28 153.82 328.40 128.48 C 319.81 98.32 302.79 70.48 279.17 49.78 C 259.31 32.09 234.95 19.65 209.18 13.21 C 191.31 9.15 172.78 8.09 154.54 9.85 Z" />
<path fill="#066839" stroke="#066839" stroke-width="0.09375" opacity="1.00" d=" M 173.87 109.97 C 180.88 97.55 194.66 89.14 208.98 89.13 C 220.58 88.68 232.12 93.67 240.08 102.06 C 249.42 100.47 258.27 96.75 266.51 92.14 C 263.37 101.57 256.84 109.58 248.53 114.96 C 256.63 113.96 264.54 111.72 272.03 108.49 C 266.41 116.68 259.54 124.06 251.40 129.78 C 252.65 160.68 241.34 191.76 220.86 214.88 C 204.17 233.87 180.87 246.83 155.95 251.06 C 126.58 256.35 95.25 250.72 70.10 234.46 C 91.76 236.94 114.13 230.78 131.36 217.41 C 119.78 216.88 108.38 211.85 100.84 202.94 C 97.10 198.77 94.53 193.72 92.59 188.52 C 98.72 189.66 105.12 189.58 111.13 187.85 C 100.82 185.50 91.37 179.40 85.42 170.60 C 80.60 163.64 78.05 155.17 78.18 146.70 C 83.90 149.88 90.34 151.67 96.88 151.90 C 86.32 144.78 79.27 132.72 78.56 119.97 C 77.97 111.83 80.19 103.72 84.02 96.57 C 104.78 122.13 136.54 138.48 169.51 139.84 C 167.17 129.80 168.69 118.90 173.87 109.97 Z" />
</svg>
