<?xml version="1.0" encoding="UTF-8" ?>
<!DOCTYPE svg PUBLIC "-//W3C//DTD SVG 1.1//EN" "http://www.w3.org/Graphics/SVG/1.1/DTD/svg11.dtd">
<svg viewBox="0 0 343 343" version="1.1" xmlns="http://www.w3.org/2000/svg">
<path fill="#066839" stroke="#066839" stroke-width="0.09375" opacity="1.00" d=" M 168.44 0.00 L 174.57 0.00 C 206.58 0.64 238.41 10.24 265.17 27.86 C 295.89 47.85 319.91 77.93 332.50 112.37 C 338.78 129.05 341.93 146.74 343.00 164.49 L 343.00 177.58 C 341.96 200.73 336.63 223.72 326.62 244.65 C 312.86 273.89 290.61 299.05 263.31 316.35 C 237.22 333.05 206.48 342.18 175.54 343.00 L 167.52 343.00 C 135.83 342.18 104.36 332.62 77.86 315.17 C 47.13 295.18 23.10 265.09 10.51 230.65 C 4.11 213.68 0.95 195.65 0.00 177.57 L 0.00 168.35 C 0.49 150.67 3.31 133.00 9.13 116.27 C 20.62 82.24 43.22 52.13 72.57 31.45 C 100.38 11.58 134.30 0.66 168.44 0.00 M 154.64 9.84 C 118.30 13.27 83.59 30.11 57.58 55.58 C 35.39 77.35 19.76 105.62 12.73 135.88 C 7.75 159.59 7.77 184.37 12.94 208.05 C 20.04 237.70 35.34 265.44 57.06 286.91 C 78.36 308.16 105.77 323.07 135.00 330.07 C 159.32 335.35 184.81 335.30 209.10 329.81 C 234.94 323.37 259.39 310.90 279.29 293.14 C 303.71 271.66 321.10 242.57 329.30 211.15 C 332.54 198.38 333.85 185.17 334.00 172.01 C 333.91 154.73 331.76 137.29 326.03 120.92 C 317.92 96.60 304.18 74.15 285.95 56.10 C 264.40 34.66 236.69 19.62 207.12 12.74 C 189.91 9.10 172.15 8.16 154.64 9.84 Z" />
<path fill="#066839" stroke="#066839" stroke-width="0.09375" opacity="1.00" d=" M 142.33 100.42 C 167.24 99.91 192.16 100.11 217.06 100.83 C 226.40 101.62 235.81 101.23 245.12 102.53 C 253.62 103.33 261.91 108.43 265.56 116.29 C 269.00 123.76 270.37 132.00 270.68 140.17 C 272.10 153.06 271.72 166.04 271.78 178.98 C 271.77 186.31 271.48 193.65 270.73 200.95 C 270.38 209.13 269.24 217.43 265.87 224.96 C 262.79 232.25 255.69 237.41 248.03 238.94 C 237.33 240.80 226.43 240.31 215.64 241.14 C 178.78 242.37 141.87 241.92 105.03 240.18 C 97.51 239.27 89.37 238.72 83.14 233.89 C 75.74 228.46 73.53 218.86 72.07 210.32 C 70.79 197.93 69.99 185.47 70.23 173.01 C 70.02 159.00 70.51 144.97 72.16 131.05 C 73.64 122.46 76.09 112.96 83.61 107.63 C 89.91 102.58 98.26 102.24 105.95 101.68 C 118.08 101.31 130.19 100.50 142.33 100.42 M 151.65 141.61 C 150.07 142.50 150.50 144.45 150.37 145.95 C 150.44 163.60 150.27 181.25 150.45 198.90 C 150.32 201.70 154.22 202.61 156.16 201.13 C 171.36 192.38 186.52 183.56 201.71 174.79 C 203.34 174.12 203.83 172.37 204.51 170.93 C 203.61 169.67 202.67 168.39 201.25 167.69 C 186.45 159.12 171.62 150.58 156.84 141.97 C 155.31 141.03 153.17 140.13 151.65 141.61 Z" />
</svg>
